<svg width="300" height="300" viewBox="0 0 300 300" fill="none" xmlns="http://www.w3.org/2000/svg">
<rect width="300" height="300" rx="12" fill="#F97316"/>
<path d="M260.37 202.672C256.453 199.411 252.536 197.455 251.883 198.107C251.231 198.759 253.189 203.325 257.759 206.585C261.675 210.498 266.898 211.151 267.551 209.846C267.551 208.572 264.287 205.933 260.37 202.672ZM247.284 204.629C243.367 200.716 240.103 198.107 239.451 200.064C238.798 201.368 241.409 206.585 245.326 211.151C249.242 215.064 253.159 217.02 253.812 215.064C254.495 213.137 251.231 208.572 247.284 204.629ZM234.881 205.281C231.617 201.368 228.353 199.411 227.7 202.02C228.353 206.585 230.311 211.151 233.575 214.411C237.492 218.977 241.409 219.629 241.409 217.02C240.103 212.485 238.145 208.572 234.881 205.281ZM221.795 205.281C218.531 201.368 215.267 200.716 214.614 203.977C215.267 209.194 217.226 213.759 221.142 217.672C225.059 221.585 228.323 222.237 228.323 218.324C227.7 213.137 225.089 208.572 221.795 205.281ZM208.086 205.281C204.17 202.02 201.559 202.02 200.906 206.585C201.559 211.803 203.517 217.02 208.086 220.933C212.003 224.846 215.267 223.542 215.267 219.629C214.614 214.441 212.003 209.224 208.086 205.281ZM193.725 206.585C189.808 203.325 186.544 205.281 186.544 210.498C186.544 216.368 189.808 221.585 194.378 225.528C198.947 228.789 202.211 226.832 201.559 221.615C200.906 215.745 198.295 210.528 193.725 206.585ZM179.334 208.572C175.417 205.311 171.5 207.267 171.5 211.832C171.5 217.702 174.111 222.919 178.681 226.862C183.25 230.123 186.514 228.818 186.514 223.601C185.862 217.702 183.25 212.485 179.334 208.572ZM163.667 211.18C159.75 207.919 155.833 208.572 155.18 213.137C155.18 219.006 157.791 224.224 161.708 227.484C166.278 231.398 170.194 230.745 170.194 225.528C170.194 220.311 167.583 215.093 163.667 211.18ZM147.317 213.137C143.4 209.224 139.483 209.224 138.83 213.137C138.83 218.354 140.789 223.571 144.706 226.832C149.275 230.745 153.192 230.745 153.845 226.832C153.192 221.615 151.234 217.05 147.317 213.137ZM129.662 214.441C125.745 210.528 121.828 209.224 120.522 212.485C119.87 217.05 121.828 222.267 125.092 225.528C129.009 230.093 133.578 231.398 134.231 228.137C135.566 222.267 133.578 217.702 129.662 214.441ZM112.036 213.789C108.772 209.224 104.855 207.919 103.55 209.876C102.244 211.832 103.55 217.702 107.466 222.267C111.383 226.832 115.3 228.789 116.606 226.18C117.258 223.571 115.3 217.702 112.036 213.789ZM93.0752 211.832C89.8112 207.267 85.8944 205.311 84.5888 207.267C83.2832 209.224 84.5888 213.789 87.8528 218.354C91.1168 222.919 95.0336 225.528 96.3392 223.571C97.6448 221.615 96.3392 216.398 93.0752 211.832ZM74.1144 208.572C71.5032 204.006 68.2392 201.398 66.2808 202.702C64.9752 204.006 65.628 208.572 68.892 213.137C71.5032 217.702 75.42 220.311 76.7256 219.006C78.7137 218.354 77.4081 213.137 74.1144 208.572ZM55.836 205.281C53.2248 200.716 50.6136 198.107 49.308 198.759C48.0024 199.411 48.6552 203.977 51.2664 208.542C53.8776 213.107 57.1416 216.368 58.4472 215.064C59.7528 213.789 58.4472 209.876 55.836 205.281ZM32.3056 193.542C33.6112 192.89 36.2224 196.151 38.1808 201.368C40.1392 206.585 40.792 210.498 39.4864 210.498C38.1808 211.18 35.5696 207.919 33.6112 202.672C31.6528 197.455 31 194.194 32.3056 193.542ZM246.631 180.499C244.673 176.585 242.715 173.325 241.409 173.977C240.756 174.629 241.409 179.194 243.367 183.759C245.979 188.325 248.59 190.281 249.242 189.629C250.548 188.325 248.59 184.412 246.631 180.499ZM236.839 178.512C234.881 173.947 232.923 171.338 231.617 172.643C230.964 176.556 231.617 180.469 234.228 183.73C236.839 188.295 239.451 190.251 240.103 188.947C239.451 185.716 238.798 181.803 236.839 178.512ZM225.742 177.208C223.783 172.643 221.172 170.686 219.867 173.295C219.214 177.86 220.519 181.773 222.478 185.686C225.089 190.251 228.353 191.556 228.353 189.599C229.006 185.064 227.7 181.151 225.742 177.208ZM213.962 175.904C211.351 171.991 208.739 170.686 208.086 173.947C207.434 178.512 208.739 183.078 211.35 186.991C214.614 190.904 217.226 191.556 217.878 188.295C217.878 184.412 216.573 179.846 213.962 175.904ZM200.906 175.904C198.295 171.991 195.031 172.643 193.725 176.556C193.072 181.773 194.378 186.338 197.642 190.251C200.906 194.164 204.17 193.512 204.822 189.599C205.475 184.412 204.17 179.846 200.906 175.904ZM187.167 175.904C183.903 172.643 180.639 173.947 179.334 179.165C178.681 184.382 180.639 189.599 184.556 192.86C188.473 196.121 191.737 194.817 191.737 189.599C192.39 184.412 190.431 179.194 187.167 175.904ZM172.806 177.208C169.542 173.947 165.625 175.904 164.972 180.469C164.319 185.686 165.625 190.904 169.542 194.164C173.458 197.425 176.722 196.121 177.375 191.556C178.028 185.716 176.722 181.151 172.806 177.208ZM157.762 179.194C154.498 175.933 150.581 176.585 149.275 180.499C148.622 185.716 149.928 190.281 153.845 193.542C157.762 196.803 161.026 196.151 162.331 192.238C162.984 187.672 161.026 183.107 157.762 179.194ZM141.442 181.151C138.178 177.89 134.261 177.89 132.955 181.151C132.302 185.716 133.608 190.281 136.872 193.542C140.789 196.803 144.053 197.455 145.358 193.542C146.664 188.977 145.358 184.412 141.442 181.151ZM125.092 182.455C121.828 178.542 118.564 177.89 116.606 181.151C115.3 185.716 116.606 190.281 119.87 192.89C123.134 196.803 127.05 197.455 128.356 194.846C129.662 190.281 128.356 185.716 125.092 182.455ZM108.119 183.107C104.855 179.194 101.591 177.89 100.286 180.499C98.9801 182.455 100.286 187.672 103.55 191.585C106.814 195.498 110.73 196.803 112.036 194.846C112.036 190.281 110.73 185.716 108.119 183.107ZM90.464 182.455C87.8528 178.542 83.936 176.585 82.6304 178.542C81.3248 180.499 81.9776 185.064 85.2416 188.977C87.8528 192.89 91.7696 194.846 93.0752 192.89C94.3808 190.933 93.728 186.368 90.464 182.455ZM72.8088 181.803C70.1976 177.89 66.9336 175.933 65.628 177.238C64.3224 178.542 64.9752 183.107 67.5864 187.02C70.1976 190.933 73.4616 193.542 74.7672 192.238C76.7553 190.281 75.42 185.716 72.8088 181.803ZM55.1832 180.499C52.572 176.585 49.9608 173.977 48.6552 174.629C47.3496 175.281 48.0024 179.846 50.6136 183.759C53.2248 187.672 55.836 190.281 57.1416 189.629C58.4472 188.325 57.7944 184.412 55.1832 180.499ZM31.6528 171.338C32.9584 170.686 35.5696 173.947 38.1808 177.86C40.1392 182.425 41.4448 186.338 40.1392 186.991C38.8336 187.643 36.2224 184.382 33.6112 180.469C31.6528 175.904 30.3472 171.991 31.6528 171.338ZM242.715 154.382C242.062 149.817 241.409 146.556 240.756 146.556C239.451 147.208 238.798 151.773 239.451 156.339C240.103 160.904 242.062 164.165 242.715 163.512C243.367 160.904 243.367 157.643 242.715 154.382ZM234.228 151.121C233.575 146.556 232.27 143.295 230.964 144.599C229.006 147.86 229.006 152.426 229.659 155.686C230.964 160.252 232.923 162.86 233.575 161.556C234.881 158.295 234.881 154.382 234.228 151.121ZM224.436 147.831C223.783 143.265 221.825 141.309 219.867 143.265C217.908 147.179 217.908 151.744 219.214 155.657C220.519 160.222 223.131 162.178 223.783 159.57C225.089 156.339 225.089 151.773 224.436 147.831ZM213.309 145.874C212.003 141.961 209.392 140.657 207.434 143.918C205.475 147.831 205.475 153.048 207.434 156.961C209.392 160.874 212.003 162.178 213.309 158.918C214.614 154.382 214.614 150.469 213.309 145.874ZM200.253 144.57C198.295 140.657 195.031 141.309 193.072 145.222C191.114 149.787 191.767 155.005 194.378 158.918C196.989 162.831 199.6 162.178 200.906 158.265C202.864 153.73 202.211 149.135 200.253 144.57ZM187.167 144.57C184.556 141.309 180.639 142.613 178.681 147.179C176.722 151.744 177.375 156.961 180.639 160.874C183.903 164.135 187.167 162.831 188.473 158.265C190.431 153.73 189.778 148.483 187.167 144.57ZM172.153 145.874C169.542 143.265 165.625 144.57 163.667 149.135C161.708 153.7 163.014 158.918 166.278 162.831C169.542 166.091 172.806 164.787 174.764 160.222C176.07 155.034 175.417 149.817 172.153 145.874ZM156.456 148.483C154.498 146.526 151.886 145.874 149.928 147.831C149.275 148.483 148.622 149.135 147.97 150.439C146.011 155.005 147.317 159.57 150.581 163.483C151.886 165.439 155.15 166.091 157.109 164.787C157.762 164.135 158.414 162.831 159.067 162.178C160.373 156.991 159.72 151.773 156.456 148.483ZM140.789 150.469C139.483 148.513 136.219 147.86 134.261 149.165C133.608 149.817 132.955 150.469 132.303 151.121C130.997 155.034 131.65 160.252 134.914 162.86C138.178 166.121 141.442 166.121 143.4 162.208C144.706 158.947 143.4 154.382 140.789 150.469ZM124.439 153.078C121.828 149.817 117.911 149.165 116.606 151.773C115.3 155.686 115.953 160.252 118.564 163.512C121.175 166.773 125.092 167.425 126.398 164.817C127.703 160.904 127.05 156.339 124.439 153.078ZM107.466 154.382C104.855 150.469 101.591 149.817 99.6329 152.426C98.3273 156.339 98.9801 160.252 101.591 162.86C104.202 166.773 108.119 167.425 109.425 165.469C110.73 161.556 110.078 157.643 107.466 154.382ZM89.8112 155.686C87.2 151.773 83.936 150.469 82.6304 152.426C81.3248 154.382 81.9776 158.947 84.5888 162.208C87.2 166.121 90.464 167.425 91.7696 165.469C93.728 164.165 92.4224 159.599 89.8112 155.686ZM72.8088 156.339C70.1976 152.426 67.5864 150.469 65.628 152.426C64.3224 153.73 64.9752 158.295 67.5864 162.208C70.1976 166.121 73.4616 168.078 74.7672 166.773C76.1025 164.817 74.7672 160.252 72.8088 156.339ZM55.1832 156.339C53.2248 152.426 49.9608 149.817 48.6552 151.121C47.3496 152.426 48.0024 156.339 50.6136 160.252C52.572 164.165 55.836 166.773 57.1416 165.469C58.4472 164.165 57.7944 160.252 55.1832 156.339ZM31.6528 149.817C32.9584 149.165 35.5696 151.773 38.1808 155.686C40.792 159.599 41.4448 163.512 40.1392 164.165C38.8336 164.817 36.2224 162.208 33.6112 158.295C31 154.382 30.3472 150.469 31.6528 149.817ZM249.242 128.918C250.548 124.353 251.201 120.439 249.895 120.439C248.59 120.439 245.979 124.353 244.673 128.918C243.367 134.135 244.02 137.396 245.326 137.396C246.631 137.396 247.937 133.483 249.242 128.918ZM242.062 121.092C243.367 115.874 242.715 112.613 240.756 113.266C238.145 115.874 236.187 119.787 236.187 124.353C235.534 129.57 236.839 132.179 238.145 131.526C240.103 128.918 241.409 125.005 242.062 121.092ZM232.923 115.192C233.575 110.627 232.27 108.019 229.659 109.975C227.047 113.236 225.089 117.801 225.089 122.366C225.089 126.932 227.047 129.54 229.006 127.584C230.964 123.7 232.27 119.758 232.923 115.192ZM221.142 111.279C221.142 106.714 218.531 105.41 215.92 108.671C213.309 112.584 212.003 117.801 212.656 122.366C213.309 126.932 215.92 127.584 217.878 124.975C220.49 120.439 221.795 115.845 221.142 111.279ZM208.086 109.323C206.781 105.41 203.517 105.41 200.253 109.975C197.642 113.888 196.989 119.106 198.295 123.671C200.253 127.584 202.864 126.932 205.475 123.019C208.739 119.106 209.392 114.54 208.086 109.323ZM193.725 109.323C191.767 106.062 187.197 108.019 184.586 113.236C181.975 117.149 181.322 123.019 183.933 127.584C186.544 130.192 190.461 128.888 192.419 124.323C195.031 119.758 195.683 114.54 193.725 109.323ZM178.028 112.584C175.417 109.975 170.847 111.932 168.236 116.497C165.625 120.41 165.625 126.279 168.236 130.192C170.847 132.801 174.764 131.497 177.375 126.279C179.986 121.744 179.986 116.497 178.028 112.584ZM161.026 116.497C158.414 113.888 154.498 115.192 151.886 119.758C149.275 123.671 149.928 128.888 152.539 132.801C155.15 135.41 159.067 134.758 161.678 130.192C163.667 125.657 163.667 120.44 161.026 116.497ZM143.4 121.092C140.789 117.831 136.872 119.135 134.914 123.048C132.955 126.961 132.955 131.526 136.219 135.439C138.178 137.396 140.789 138.048 143.4 136.092C144.053 135.439 144.706 134.787 144.706 134.135C146.664 129.57 146.011 125.005 143.4 121.092ZM126.398 125.657C125.092 123.048 122.481 122.396 119.87 123.7C119.217 124.353 118.564 125.005 117.911 125.657C115.953 129.57 116.606 134.135 119.217 137.396C121.828 140.657 125.745 140.657 127.05 137.396C129.009 133.483 128.356 128.918 126.398 125.657ZM108.772 129.57C106.161 126.309 102.897 125.657 100.938 128.266C98.9801 131.526 99.6329 136.092 102.244 138.7C104.855 141.961 108.119 142.613 110.078 140.005C111.383 136.744 110.73 132.179 108.772 129.57ZM90.464 132.179C88.5056 128.266 85.2416 127.613 83.2832 129.57C81.9776 132.831 82.6304 136.744 84.5888 139.352C87.2 142.613 90.464 143.918 91.7696 141.961C93.728 138.7 93.0752 134.787 90.464 132.179ZM72.8088 134.135C70.1976 130.222 67.5864 128.918 65.628 130.222C64.3224 131.526 64.9752 136.092 67.5864 140.005C70.1976 143.918 72.8088 145.222 74.7672 143.918C76.1025 141.961 75.42 137.396 72.8088 134.135ZM55.1832 134.135C53.2248 130.222 49.9608 127.613 48.6552 128.918C47.3496 130.222 48.0024 134.135 49.9608 138.048C51.9192 141.961 55.1832 144.57 56.4888 143.265C58.4472 142.613 57.7944 138.048 55.1832 134.135ZM31.6528 127.613C32.9584 126.961 35.5696 129.57 38.1808 134.135C40.1392 138.048 41.4448 141.961 40.1392 142.613C38.8336 143.265 36.2224 140.657 33.6112 136.092C31.6528 132.179 30.3472 128.266 31.6528 127.613ZM265.592 107.366C268.856 103.453 270.815 98.8882 268.856 97.5839C267.551 96.2795 262.981 99.5404 260.37 104.106C257.759 109.323 257.106 113.236 258.411 113.888C259.717 114.54 262.328 111.932 265.592 107.366ZM259.717 94.323C262.328 89.1056 262.981 85.1926 260.37 85.1926C257.759 85.1926 253.842 90.41 251.883 95.6274C249.925 100.845 249.925 104.758 251.883 104.106C253.842 103.453 257.106 99.5404 259.717 94.323ZM250.548 83.8586C252.506 78.6413 251.201 75.3804 247.937 76.6848C244.02 79.9456 240.756 84.5108 240.103 89.7282C238.798 94.9455 240.103 97.5542 242.715 96.2499C246.631 93.0187 249.242 88.4238 250.548 83.8586ZM238.798 76.6848C239.451 71.4674 236.839 69.5109 232.923 72.7717C229.006 76.6848 226.395 81.9021 226.395 87.1195C226.395 91.6847 229.006 92.989 231.617 90.3803C235.534 87.1195 238.145 81.9021 238.798 76.6848ZM224.436 73.4239C223.783 68.8587 219.867 68.8587 215.95 73.4239C212.033 77.3369 210.075 83.2065 210.727 88.4535C212.033 92.3665 215.297 92.3665 218.561 87.8013C222.478 84.5108 224.436 78.6413 224.436 73.4239ZM208.086 72.7717C206.128 69.5109 200.906 71.4674 196.989 76.6848C193.072 80.5978 191.767 86.4673 193.725 91.7143C195.683 94.9752 200.253 93.0187 204.17 87.8013C207.434 83.8586 208.739 78.6413 208.086 72.7717ZM189.778 76.0326C187.82 72.7717 181.945 75.3804 178.681 81.25C174.111 87.1195 173.458 93.6412 176.07 96.2795C178.681 98.8882 183.25 96.9317 186.514 91.7143C190.431 86.4673 191.737 79.2934 189.778 76.0326ZM170.194 82.5543C167.583 79.9456 163.014 81.9021 159.75 86.4673C156.486 90.3803 156.486 96.2499 158.444 100.163C161.055 102.772 164.972 101.467 168.236 96.2499C171.5 92.3665 172.153 87.1195 170.194 82.5543ZM150.581 89.076C147.97 85.8151 143.4 87.7717 140.789 91.6847C138.178 95.5977 138.178 100.815 140.789 104.728C143.4 107.337 147.317 106.685 149.928 102.119C152.539 98.236 153.192 93.0187 150.581 89.076ZM130.967 95.6274C129.009 93.0187 125.745 93.0187 123.786 94.323C123.134 94.9752 122.481 95.6274 121.828 96.2795C119.217 100.193 119.217 104.758 121.828 108.019C123.134 109.975 126.398 110.627 128.356 109.323C129.009 108.671 129.662 108.019 130.314 107.366C133.578 104.106 133.578 99.5404 130.967 95.6274ZM112.036 101.497C110.73 98.8882 108.119 98.236 105.508 99.5404C104.855 100.193 104.202 100.193 103.55 100.845C101.591 104.758 101.591 108.671 104.202 111.932C106.814 115.192 110.078 115.845 112.036 112.584C114.647 109.323 113.994 104.758 112.036 101.497ZM93.0752 106.714C90.464 102.801 87.2 102.149 85.2416 104.758C83.2832 108.019 83.936 111.932 86.5472 114.54C88.5056 118.453 91.7696 119.106 93.728 117.149C95.6864 113.236 95.0336 109.323 93.0752 106.714ZM74.1144 109.975C71.5032 106.062 68.2392 104.758 66.9336 106.714C65.628 108.671 66.2808 112.584 68.2392 115.845C70.8504 119.758 74.1144 121.062 75.42 119.758C76.7553 117.801 76.7553 113.888 74.1144 109.975ZM55.836 111.932C53.8776 108.019 50.6136 105.41 49.308 106.714C48.0024 108.019 48.6552 111.932 50.6136 115.845C52.572 119.758 55.836 122.366 57.1416 121.062C59.1 119.758 57.7944 115.845 55.836 111.932ZM31.6528 105.41C32.9584 104.758 35.5696 107.366 38.1808 111.932C40.792 116.497 41.4448 119.758 40.1392 120.41C38.8336 121.062 36.2224 118.453 33.6112 113.888C31.6528 109.975 30.3472 106.062 31.6528 105.41Z" fill="white"/>
</svg>
