<svg width="280" height="32" viewBox="0 0 280 32" fill="none" xmlns="http://www.w3.org/2000/svg">
<g clip-path="url(#clip0_4_19)">
<path d="M5.31862 21.0943L5.30777 21.0731C6.27381 21.0731 7.07703 20.2863 7.07703 19.34C7.07703 18.6063 6.78396 18.1385 6.18697 17.9258C4.92787 17.4686 5.23179 17.5749 4.00525 17.1603C2.71358 16.7243 1.51961 15.8631 0.716386 14.7892C0.238796 14.1512 0 13.3644 0 12.4181C0 10.9933 0.521008 9.77058 1.56302 8.74985C2.60504 7.72911 3.85329 7.21875 5.31862 7.21875C6.7731 7.21875 8.02135 7.72911 9.06337 8.74985C10.1054 9.77058 10.6264 10.9933 10.6264 12.4181H7.09874C7.09874 11.4824 6.29551 10.6956 5.34033 10.6956C4.3743 10.6956 3.57108 11.4824 3.57108 12.4287C3.57108 13.0454 3.82073 13.5133 4.33088 13.8323C5.3729 14.4915 5.2535 14.3639 6.50175 14.7254C7.84769 15.1082 9.06337 15.9269 9.89915 16.9795C10.3876 17.5962 10.6372 18.3937 10.6372 19.3612C10.6372 20.7966 10.1162 22.0194 9.07423 23.0401C8.03221 24.0609 6.78396 24.5712 5.32948 24.5712C3.86414 24.5712 2.6159 24.0609 1.57388 23.0401C0.531864 22.0194 0.0108559 20.7966 0.0108559 19.3612H3.54937C3.54937 20.3182 4.34173 21.0943 5.31862 21.0943ZM17.4755 18.8083H20.569L19.0276 15.2464L17.4755 18.8083ZM16.0427 21.8386L16.021 21.828C15.6302 22.6999 15.2286 23.5611 14.827 24.433H11.0606L18.9951 7.01672L26.9513 24.433H23.174C22.7833 23.5717 22.3925 22.6999 22.0017 21.8386H16.0427ZM28.2864 7.01672L38.7825 16.8094V7.3357H42.2885V24.7945L31.7923 14.9912V24.4755H28.2864V7.01672ZM48.3344 7.37823V7.3676C50.7332 7.3676 53.0017 8.20758 54.7167 9.88754C57.8428 12.9497 57.8428 18.9147 54.7167 21.9662C53.0017 23.6355 50.7332 24.4755 48.3344 24.4755H44.0143V7.37823H48.3344ZM48.3452 21.0412H48.3561C49.7888 21.0412 51.1131 20.6478 52.1334 19.6483C53.1537 18.6488 53.5553 17.3304 53.5553 15.9162C53.5553 14.5127 53.1537 13.1943 52.1225 12.1842C51.1022 11.1741 49.7563 10.7807 48.3235 10.7807H47.5203V21.0412H48.3452ZM62.7272 7.38887H62.7163C65.0609 7.38887 67.0255 9.29211 67.0689 11.5675C67.0689 12.0247 66.9061 12.5563 66.765 12.9816C68.7622 13.8322 70.5532 15.7674 70.5532 18.4787C70.5532 20.1161 69.9562 21.5197 68.7622 22.6892C67.5682 23.8588 66.1355 24.4436 64.4639 24.4436H58.3746V7.38887L62.7272 7.38887ZM61.848 12.8434H62.7163C63.3025 12.8434 63.7692 12.4075 63.7692 11.8439C63.7692 11.2698 63.3025 10.7913 62.7163 10.7913H61.848V12.8434ZM64.453 21.0305C65.8858 21.0305 67.0689 19.8822 67.0689 18.4893C67.0689 17.777 66.8084 17.1709 66.2983 16.6712C65.7881 16.1714 65.1694 16.1395 64.453 16.1395H61.848V21.0305L64.453 21.0305ZM71.8666 7.3357H75.3725V21.0412H82.3627V24.4755H71.8666V7.3357ZM89.6134 18.8083H92.7069L91.1656 15.2464L89.6134 18.8083ZM88.1806 21.8386L88.1589 21.828C87.7682 22.6999 87.3665 23.5611 86.9649 24.433H83.1985L91.133 7.01672L99.0892 24.433H95.3119C94.9212 23.5717 94.5304 22.6999 94.1396 21.8386H88.1806ZM104.733 21.0943L104.723 21.0731C105.689 21.0731 106.492 20.2863 106.492 19.34C106.492 18.6063 106.199 18.1385 105.602 17.9258C104.343 17.4686 104.647 17.5749 103.42 17.1603C102.128 16.7243 100.934 15.8631 100.131 14.7892C99.6537 14.1512 99.4149 13.3644 99.4149 12.4181C99.4149 10.9933 99.9359 9.77058 100.978 8.74985C102.02 7.72911 103.268 7.21875 104.733 7.21875C106.188 7.21875 107.436 7.72911 108.478 8.74985C109.52 9.77058 110.041 10.9933 110.041 12.4181H106.514C106.514 11.4824 105.71 10.6956 104.755 10.6956C103.789 10.6956 102.986 11.4824 102.986 12.4287C102.986 13.0454 103.236 13.5133 103.746 13.8323C104.788 14.4915 104.668 14.3639 105.917 14.7254C107.263 15.1082 108.478 15.9269 109.314 16.9795C109.802 17.5962 110.052 18.3937 110.052 19.3612C110.052 20.7966 109.531 22.0194 108.489 23.0401C107.447 24.0609 106.199 24.5712 104.744 24.5712C103.279 24.5712 102.031 24.0609 100.989 23.0401C99.9467 22.0194 99.4257 20.7966 99.4257 19.3612H102.964C102.964 20.3182 103.757 21.0943 104.733 21.0943ZM115.816 7.3357H119.322H123.696V10.7594H119.322V24.4755H115.816V10.7594H111.441V7.3357H115.816ZM125.216 24.4755V7.3357H128.722V24.4755L125.216 24.4755ZM130.458 7.01672L140.954 16.8094V7.3357H144.46V24.7945L133.964 14.9912V24.4755H130.458V7.01672ZM154.598 7.25064L154.609 7.28254C155.825 7.28254 156.965 7.50583 158.039 7.96303C159.114 8.42023 160.058 9.03693 160.872 9.81311L158.376 12.2586C157.323 11.2379 156.074 10.7275 154.631 10.7275C153.166 10.7275 151.917 11.2379 150.886 12.2586C149.855 13.2794 149.334 14.5021 149.334 15.9269C149.334 17.3623 149.855 18.585 150.886 19.5951C151.917 20.6052 153.166 21.1156 154.631 21.1156C155.781 21.1156 156.813 20.7966 157.713 20.148C158.614 19.4994 159.255 18.6701 159.624 17.66H154.62V14.2044H159.624H161.675H163.282C163.401 14.7467 163.455 15.3208 163.455 15.9269C163.455 18.3086 162.587 20.3501 160.85 22.0407C159.114 23.7312 157.03 24.5818 154.598 24.5818C152.167 24.5818 150.083 23.7312 148.357 22.0407C146.631 20.3501 145.763 18.3086 145.763 15.9269C145.763 13.5452 146.631 11.5037 148.357 9.80248C150.083 8.10126 152.167 7.25064 154.598 7.25064Z" fill="white"/>
<path d="M223.256 26.5344C222.457 25.8822 221.658 25.4909 221.525 25.6214C221.392 25.7518 221.791 26.6648 222.723 27.317C223.522 28.0996 224.587 28.2301 224.721 27.9692C224.721 27.7142 224.055 27.1866 223.256 26.5344ZM220.587 26.9257C219.788 26.1431 219.122 25.6214 218.989 26.0127C218.856 26.2735 219.388 27.317 220.187 28.2301C220.986 29.0127 221.785 29.404 221.918 29.0127C222.057 28.6273 221.392 27.7142 220.587 26.9257ZM218.057 27.0561C217.391 26.2735 216.725 25.8822 216.592 26.404C216.725 27.317 217.125 28.2301 217.791 28.8822C218.589 29.7953 219.388 29.9257 219.388 29.404C219.122 28.4968 218.723 27.7142 218.057 27.0561ZM215.388 27.0561C214.722 26.2735 214.056 26.1431 213.923 26.7953C214.056 27.8387 214.456 28.7518 215.255 29.5344C216.053 30.317 216.719 30.4474 216.719 29.6648C216.592 28.6273 216.06 27.7142 215.388 27.0561ZM212.591 27.0561C211.793 26.404 211.26 26.404 211.127 27.317C211.26 28.3605 211.659 29.404 212.591 30.1866C213.39 30.9692 214.056 30.7083 214.056 29.9257C213.923 28.8882 213.39 27.8447 212.591 27.0561ZM209.662 27.317C208.863 26.6648 208.197 27.0561 208.197 28.0996C208.197 29.2735 208.863 30.317 209.795 31.1055C210.727 31.7577 211.393 31.3664 211.26 30.3229C211.127 29.149 210.594 28.1055 209.662 27.317ZM206.727 27.7142C205.928 27.0621 205.129 27.4534 205.129 28.3664C205.129 29.5403 205.661 30.5838 206.593 31.3723C207.526 32.0245 208.191 31.7636 208.191 30.7202C208.058 29.5403 207.526 28.4968 206.727 27.7142ZM203.531 28.236C202.732 27.5838 201.933 27.7142 201.8 28.6273C201.8 29.8012 202.333 30.8447 203.131 31.4968C204.064 32.2794 204.862 32.149 204.862 31.1055C204.862 30.0621 204.33 29.0186 203.531 28.236ZM200.196 28.6273C199.397 27.8447 198.598 27.8447 198.465 28.6273C198.465 29.6708 198.865 30.7142 199.663 31.3664C200.596 32.149 201.394 32.149 201.528 31.3664C201.394 30.3229 200.995 29.4099 200.196 28.6273ZM196.595 28.8882C195.796 28.1055 194.997 27.8447 194.731 28.4968C194.598 29.4099 194.997 30.4534 195.663 31.1055C196.462 32.0186 197.394 32.2794 197.527 31.6273C197.799 30.4534 197.394 29.5403 196.595 28.8882ZM193 28.7577C192.334 27.8447 191.535 27.5838 191.269 27.9751C191.002 28.3664 191.269 29.5403 192.068 30.4534C192.867 31.3664 193.665 31.7577 193.932 31.236C194.065 30.7142 193.665 29.5403 193 28.7577ZM189.132 28.3664C188.466 27.4534 187.667 27.0621 187.401 27.4534C187.135 27.8447 187.401 28.7577 188.067 29.6708C188.733 30.5838 189.532 31.1055 189.798 30.7142C190.064 30.3229 189.798 29.2795 189.132 28.3664ZM185.265 27.7142C184.732 26.8012 184.066 26.2795 183.667 26.5403C183.401 26.8012 183.534 27.7142 184.199 28.6273C184.732 29.5403 185.531 30.0621 185.797 29.8012C186.203 29.6708 185.936 28.6273 185.265 27.7142ZM181.536 27.0561C181.004 26.1431 180.471 25.6214 180.205 25.7518C179.939 25.8822 180.072 26.7953 180.604 27.7083C181.137 28.6214 181.803 29.2735 182.069 29.0127C182.335 28.7577 182.069 27.9751 181.536 27.0561ZM176.737 24.7083C177.003 24.5779 177.536 25.2301 177.935 26.2735C178.335 27.317 178.468 28.0996 178.201 28.0996C177.935 28.236 177.403 27.5838 177.003 26.5344C176.604 25.4909 176.47 24.8388 176.737 24.7083ZM220.454 22.0996C220.054 21.317 219.655 20.6649 219.388 20.7953C219.255 20.9257 219.388 21.8388 219.788 22.7518C220.32 23.6649 220.853 24.0562 220.986 23.9257C221.253 23.6649 220.853 22.8822 220.454 22.0996ZM218.456 21.7024C218.057 20.7894 217.657 20.2676 217.391 20.5285C217.258 21.3111 217.391 22.0937 217.924 22.7459C218.456 23.6589 218.989 24.0502 219.122 23.7894C218.989 23.1431 218.856 22.3605 218.456 21.7024ZM216.193 21.4415C215.793 20.5285 215.261 20.1372 214.994 20.6589C214.861 21.572 215.127 22.3546 215.527 23.1372C216.06 24.0502 216.725 24.3111 216.725 23.9198C216.858 23.0127 216.592 22.2301 216.193 21.4415ZM213.79 21.1807C213.257 20.3981 212.725 20.1372 212.591 20.7894C212.458 21.7024 212.725 22.6155 213.257 23.3981C213.923 24.1807 214.456 24.3111 214.589 23.6589C214.589 22.8822 214.322 21.9692 213.79 21.1807ZM211.127 21.1807C210.594 20.3981 209.928 20.5285 209.662 21.3111C209.529 22.3546 209.795 23.2676 210.461 24.0502C211.127 24.8328 211.793 24.7024 211.926 23.9198C212.059 22.8822 211.793 21.9692 211.127 21.1807ZM208.324 21.1807C207.659 20.5285 206.993 20.7894 206.727 21.8328C206.593 22.8763 206.993 23.9198 207.792 24.572C208.591 25.2241 209.257 24.9633 209.257 23.9198C209.39 22.8822 208.99 21.8388 208.324 21.1807ZM205.395 21.4415C204.729 20.7894 203.93 21.1807 203.797 22.0937C203.664 23.1372 203.93 24.1807 204.729 24.8328C205.528 25.485 206.194 25.2241 206.327 24.3111C206.46 23.1431 206.194 22.2301 205.395 21.4415ZM202.327 21.8388C201.661 21.1866 200.862 21.317 200.596 22.0996C200.462 23.1431 200.729 24.0562 201.528 24.7083C202.327 25.3605 202.992 25.2301 203.259 24.4475C203.392 23.5344 202.992 22.6214 202.327 21.8388ZM198.998 22.2301C198.332 21.5779 197.533 21.5779 197.267 22.2301C197.134 23.1431 197.4 24.0562 198.066 24.7083C198.865 25.3605 199.53 25.4909 199.797 24.7083C200.063 23.7953 199.797 22.8822 198.998 22.2301ZM195.663 22.4909C194.997 21.7083 194.331 21.5779 193.932 22.2301C193.665 23.1431 193.932 24.0562 194.598 24.5779C195.263 25.3605 196.062 25.4909 196.329 24.9692C196.595 24.0562 196.329 23.1431 195.663 22.4909ZM192.201 22.6214C191.535 21.8388 190.869 21.5779 190.603 22.0996C190.337 22.4909 190.603 23.5344 191.269 24.317C191.934 25.0996 192.733 25.3605 193 24.9692C193 24.0562 192.733 23.1431 192.201 22.6214ZM188.6 22.4909C188.067 21.7083 187.268 21.317 187.002 21.7083C186.735 22.0996 186.869 23.0127 187.534 23.7953C188.067 24.5779 188.866 24.9692 189.132 24.5779C189.398 24.1866 189.265 23.2736 188.6 22.4909ZM184.998 22.3605C184.466 21.5779 183.8 21.1866 183.534 21.4475C183.267 21.7083 183.401 22.6214 183.933 23.404C184.466 24.1866 185.132 24.7083 185.398 24.4475C185.803 24.0562 185.531 23.1431 184.998 22.3605ZM181.403 22.0996C180.871 21.317 180.338 20.7953 180.072 20.9257C179.805 21.0562 179.939 21.9692 180.471 22.7518C181.004 23.5344 181.536 24.0562 181.803 23.9257C182.069 23.6649 181.936 22.8822 181.403 22.0996ZM176.604 20.2676C176.87 20.1372 177.403 20.7894 177.935 21.572C178.335 22.485 178.601 23.2676 178.335 23.3981C178.068 23.5285 177.536 22.8763 177.003 22.0937C176.604 21.1807 176.337 20.3981 176.604 20.2676ZM219.655 16.8763C219.522 15.9633 219.388 15.3111 219.255 15.3111C218.989 15.4416 218.856 16.3546 218.989 17.2676C219.122 18.1807 219.522 18.8329 219.655 18.7024C219.788 18.1807 219.788 17.5285 219.655 16.8763ZM217.924 16.2242C217.791 15.3111 217.524 14.659 217.258 14.9198C216.858 15.572 216.858 16.485 216.992 17.1372C217.258 18.0503 217.657 18.572 217.791 18.3111C218.057 17.659 218.057 16.8763 217.924 16.2242ZM215.926 15.5661C215.793 14.653 215.394 14.2617 214.994 14.653C214.595 15.4356 214.595 16.3487 214.861 17.1313C215.127 18.0443 215.66 18.4356 215.793 17.9139C216.06 17.2676 216.06 16.3546 215.926 15.5661ZM213.657 15.1748C213.39 14.3922 212.858 14.1313 212.458 14.7835C212.059 15.5661 212.059 16.6095 212.458 17.3922C212.858 18.1748 213.39 18.4356 213.657 17.7835C213.923 16.8763 213.923 16.0937 213.657 15.1748ZM210.994 14.9139C210.594 14.1313 209.928 14.2617 209.529 15.0443C209.129 15.9574 209.263 17.0009 209.795 17.7835C210.328 18.5661 210.86 18.4356 211.127 17.653C211.526 16.7459 211.393 15.8269 210.994 14.9139ZM208.324 14.9139C207.792 14.2617 206.993 14.5226 206.593 15.4356C206.194 16.3487 206.327 17.3922 206.993 18.1748C207.659 18.8269 208.324 18.5661 208.591 17.653C208.99 16.7459 208.857 15.6965 208.324 14.9139ZM205.262 15.1748C204.729 14.653 203.93 14.9139 203.531 15.8269C203.131 16.74 203.398 17.7835 204.064 18.5661C204.729 19.2182 205.395 18.9574 205.795 18.0443C206.061 17.0068 205.928 15.9633 205.262 15.1748ZM202.06 15.6965C201.661 15.3052 201.128 15.1748 200.729 15.5661C200.596 15.6965 200.462 15.8269 200.329 16.0878C199.93 17.0009 200.196 17.9139 200.862 18.6965C201.128 19.0878 201.794 19.2182 202.193 18.9574C202.327 18.8269 202.46 18.5661 202.593 18.4356C202.859 17.3981 202.726 16.3546 202.06 15.6965ZM198.865 16.0937C198.598 15.7024 197.932 15.572 197.533 15.8329C197.4 15.9633 197.267 16.0937 197.134 16.2242C196.867 17.0068 197 18.0503 197.666 18.572C198.332 19.2242 198.998 19.2242 199.397 18.4416C199.663 17.7894 199.397 16.8763 198.865 16.0937ZM195.53 16.6155C194.997 15.9633 194.198 15.8329 193.932 16.3546C193.665 17.1372 193.799 18.0503 194.331 18.7024C194.864 19.3546 195.663 19.485 195.929 18.9633C196.195 18.1807 196.062 17.2676 195.53 16.6155ZM192.068 16.8763C191.535 16.0937 190.869 15.9633 190.47 16.485C190.203 17.2676 190.337 18.0503 190.869 18.572C191.402 19.3546 192.201 19.485 192.467 19.0937C192.733 18.3111 192.6 17.5285 192.068 16.8763ZM188.466 17.1372C187.934 16.3546 187.268 16.0937 187.002 16.485C186.735 16.8763 186.869 17.7894 187.401 18.4416C187.934 19.2242 188.6 19.485 188.866 19.0937C189.265 18.8329 188.999 17.9198 188.466 17.1372ZM184.998 17.2676C184.466 16.485 183.933 16.0937 183.534 16.485C183.267 16.7459 183.401 17.659 183.933 18.4416C184.466 19.2242 185.132 19.6155 185.398 19.3546C185.67 18.9633 185.398 18.0503 184.998 17.2676ZM181.403 17.2676C181.004 16.485 180.338 15.9633 180.072 16.2242C179.805 16.485 179.939 17.2676 180.471 18.0503C180.871 18.8329 181.536 19.3546 181.803 19.0937C182.069 18.8329 181.936 18.0503 181.403 17.2676ZM176.604 15.9633C176.87 15.8329 177.403 16.3546 177.935 17.1372C178.468 17.9198 178.601 18.7024 178.335 18.8329C178.068 18.9633 177.536 18.4416 177.003 17.659C176.47 16.8763 176.337 16.0937 176.604 15.9633ZM220.986 11.7835C221.253 10.8704 221.386 10.0878 221.119 10.0878C220.853 10.0878 220.32 10.8704 220.054 11.7835C219.788 12.827 219.921 13.4791 220.187 13.4791C220.454 13.4791 220.72 12.6965 220.986 11.7835ZM219.522 10.2183C219.788 9.1748 219.655 8.52263 219.255 8.65306C218.723 9.1748 218.323 9.95741 218.323 10.8704C218.19 11.9139 218.456 12.4357 218.723 12.3052C219.122 11.7835 219.388 11.0009 219.522 10.2183ZM217.657 9.03844C217.791 8.1254 217.524 7.60366 216.992 7.99496C216.459 8.64713 216.06 9.56017 216.06 10.4732C216.06 11.3863 216.459 11.908 216.858 11.5167C217.258 10.74 217.524 9.95148 217.657 9.03844ZM215.255 8.25583C215.255 7.34279 214.722 7.08192 214.189 7.73409C213.657 8.5167 213.39 9.56017 213.524 10.4732C213.657 11.3863 214.189 11.5167 214.589 10.9949C215.121 10.0878 215.388 9.16887 215.255 8.25583ZM212.591 7.86453C212.325 7.08192 211.659 7.08192 210.994 7.99496C210.461 8.77757 210.328 9.82104 210.594 10.7341C210.994 11.5167 211.526 11.3863 212.059 10.6036C212.725 9.82104 212.858 8.908 212.591 7.86453ZM209.662 7.86453C209.263 7.21236 208.331 7.60366 207.798 8.64713C207.265 9.42974 207.132 10.6036 207.665 11.5167C208.197 12.0384 208.996 11.7776 209.396 10.8645C209.928 9.95148 210.062 8.908 209.662 7.86453ZM206.46 8.5167C205.928 7.99496 204.996 8.38627 204.463 9.29931C203.93 10.0819 203.93 11.2558 204.463 12.0384C204.996 12.5602 205.795 12.2993 206.327 11.2558C206.86 10.3487 206.86 9.2993 206.46 8.5167ZM202.992 9.29931C202.46 8.77757 201.661 9.03844 201.128 9.95148C200.596 10.7341 200.729 11.7776 201.261 12.5602C201.794 13.0819 202.593 12.9515 203.125 12.0384C203.531 11.1313 203.531 10.0878 202.992 9.29931ZM199.397 10.2183C198.865 9.5661 198.066 9.82697 197.666 10.6096C197.267 11.3922 197.267 12.3052 197.932 13.0878C198.332 13.4791 198.865 13.6096 199.397 13.2183C199.53 13.0878 199.663 12.9574 199.663 12.827C200.063 11.9139 199.93 11.0009 199.397 10.2183ZM195.929 11.1313C195.663 10.6096 195.13 10.4791 194.598 10.74C194.464 10.8704 194.331 11.0009 194.198 11.1313C193.799 11.9139 193.932 12.827 194.464 13.4791C194.997 14.1313 195.796 14.1313 196.062 13.4791C196.462 12.6965 196.329 11.7835 195.929 11.1313ZM192.334 11.9139C191.801 11.2617 191.136 11.1313 190.736 11.653C190.337 12.3052 190.47 13.2183 191.002 13.74C191.535 14.3922 192.201 14.5226 192.6 14.0009C192.867 13.3487 192.733 12.4357 192.334 11.9139ZM188.6 12.4357C188.2 11.653 187.534 11.5226 187.135 11.9139C186.869 12.5661 187.002 13.3487 187.401 13.8704C187.934 14.5226 188.6 14.7835 188.866 14.3922C189.265 13.74 189.132 12.9574 188.6 12.4357ZM184.998 12.827C184.466 12.0444 183.933 11.7835 183.534 12.0444C183.267 12.3052 183.401 13.2183 183.933 14.0009C184.466 14.7835 184.998 15.0443 185.398 14.7835C185.67 14.3922 185.531 13.4791 184.998 12.827ZM181.403 12.827C181.004 12.0444 180.338 11.5226 180.072 11.7835C179.805 12.0444 179.939 12.827 180.338 13.6096C180.737 14.3922 181.403 14.9139 181.67 14.653C182.069 14.5226 181.936 13.6096 181.403 12.827ZM176.604 11.5226C176.87 11.3922 177.403 11.9139 177.935 12.827C178.335 13.6096 178.601 14.3922 178.335 14.5226C178.068 14.653 177.536 14.1313 177.003 13.2183C176.604 12.4357 176.337 11.653 176.604 11.5226ZM224.321 7.47323C224.987 6.69062 225.386 5.77758 224.987 5.51671C224.721 5.25584 223.788 5.90802 223.256 6.82106C222.723 7.86453 222.59 8.64713 222.856 8.77757C223.123 8.908 223.655 8.38627 224.321 7.47323ZM223.123 4.86454C223.655 3.82107 223.788 3.03846 223.256 3.03846C222.723 3.03846 221.924 4.08194 221.525 5.12541C221.125 6.16888 221.125 6.95149 221.525 6.82106C221.924 6.69062 222.59 5.90802 223.123 4.86454ZM221.253 2.77167C221.652 1.72819 221.386 1.07602 220.72 1.33689C219.921 1.98906 219.255 2.9021 219.122 3.94557C218.856 4.98905 219.122 5.51078 219.655 5.24992C220.454 4.60367 220.986 3.68471 221.253 2.77167ZM218.856 1.33689C218.989 0.293416 218.456 -0.0978867 217.657 0.554284C216.858 1.33689 216.326 2.38036 216.326 3.42384C216.326 4.33688 216.858 4.59774 217.391 4.07601C218.19 3.42384 218.723 2.38036 218.856 1.33689ZM215.926 0.684718C215.793 -0.228321 214.994 -0.228321 214.195 0.684718C213.396 1.46732 212.997 2.64123 213.13 3.69063C213.396 4.47324 214.062 4.47324 214.728 3.5602C215.527 2.9021 215.926 1.72819 215.926 0.684718ZM212.591 0.554284C212.192 -0.0978867 211.127 0.293416 210.328 1.33689C209.529 2.11949 209.263 3.2934 209.662 4.34281C210.062 4.99498 210.994 4.60367 211.793 3.5602C212.458 2.77167 212.725 1.72819 212.591 0.554284ZM208.857 1.20646C208.458 0.554284 207.259 1.07602 206.593 2.24993C205.661 3.42384 205.528 4.72818 206.061 5.25584C206.593 5.77758 207.526 5.38628 208.191 4.34281C208.99 3.2934 209.257 1.85863 208.857 1.20646ZM204.862 2.5108C204.33 1.98906 203.398 2.38036 202.732 3.2934C202.066 4.07601 202.066 5.24992 202.466 6.03252C202.998 6.55426 203.797 6.29339 204.463 5.24992C205.129 4.47324 205.262 3.42384 204.862 2.5108ZM200.862 3.81514C200.329 3.16297 199.397 3.55427 198.865 4.33688C198.332 5.11948 198.332 6.16296 198.865 6.94556C199.397 7.4673 200.196 7.33686 200.729 6.42382C201.261 5.64715 201.394 4.60367 200.862 3.81514ZM196.861 5.12541C196.462 4.60367 195.796 4.60367 195.396 4.86454C195.263 4.99498 195.13 5.12541 194.997 5.25584C194.464 6.03845 194.464 6.95149 194.997 7.60366C195.263 7.99496 195.929 8.1254 196.329 7.86453C196.462 7.73409 196.595 7.60366 196.728 7.47323C197.394 6.82106 197.394 5.90802 196.861 5.12541ZM193 6.29932C192.733 5.77758 192.201 5.64715 191.668 5.90802C191.535 6.03845 191.402 6.03845 191.269 6.16888C190.869 6.95149 190.869 7.73409 191.402 8.38627C191.934 9.03844 192.6 9.16887 193 8.5167C193.532 7.86453 193.399 6.95149 193 6.29932ZM189.132 7.34279C188.6 6.56019 187.934 6.42975 187.534 6.95149C187.135 7.60366 187.268 8.38627 187.801 8.908C188.2 9.69061 188.866 9.82104 189.265 9.42974C189.665 8.64713 189.532 7.86453 189.132 7.34279ZM185.265 7.99496C184.732 7.21236 184.066 6.95149 183.8 7.34279C183.534 7.73409 183.667 8.5167 184.066 9.16887C184.599 9.95148 185.265 10.2123 185.531 9.95148C185.803 9.56017 185.803 8.77757 185.265 7.99496ZM181.536 8.38627C181.137 7.60366 180.471 7.08192 180.205 7.34279C179.939 7.60366 180.072 8.38627 180.471 9.16887C180.871 9.95148 181.536 10.4732 181.803 10.2123C182.202 9.95148 181.936 9.16887 181.536 8.38627ZM176.604 7.08192C176.87 6.95149 177.403 7.47323 177.935 8.38627C178.468 9.2993 178.601 9.95148 178.335 10.0819C178.068 10.2123 177.536 9.69061 177.003 8.77757C176.604 7.99496 176.337 7.21236 176.604 7.08192Z" fill="#F97316"/>
<path d="M238.333 24.7945V19.4568V13.2367V7.01672H241.969H244.683C246.428 7.01672 247.925 7.62329 249.175 8.84744C250.424 10.0716 251.044 11.5384 251.044 13.2478C251.044 14.9572 250.424 16.4239 249.175 17.6371C247.925 18.8502 246.428 19.4568 244.683 19.4568H241.969V24.7945L238.333 24.7945ZM241.969 15.9056L244.683 15.9166C245.437 15.9166 246.079 15.652 246.608 15.1336C247.137 14.6153 247.407 13.9867 247.407 13.2478C247.407 12.5199 247.137 11.8913 246.608 11.3619C246.079 10.8325 245.437 10.5679 244.683 10.5679H241.969V13.2367V15.9056ZM257.089 7.06084V7.04981C259.577 7.04981 261.93 7.92105 263.709 9.66354C266.952 12.8397 266.952 19.0266 263.709 22.1918C261.93 23.9233 259.577 24.7945 257.089 24.7945H252.608V7.06084H257.089ZM257.101 21.2323H257.112C258.598 21.2323 259.971 20.8243 261.03 19.7876C262.088 18.7509 262.505 17.3834 262.505 15.9166C262.505 14.4609 262.088 13.0934 261.018 12.0457C259.96 10.998 258.564 10.5899 257.078 10.5899H256.245V21.2323H257.101ZM265.488 7.01672H269.654L272.738 12.3104L275.823 7.01672H280L274.821 15.8946L280 24.7945H275.823L272.738 19.4898L269.654 24.7945L265.488 24.7835L270.644 15.8946L265.488 7.01672Z" fill="white"/>
</g>
<defs>
<clipPath id="clip0_4_19">
<rect width="280" height="32" fill="white"/>
</clipPath>
</defs>
</svg>
